<svg xmlns="http://www.w3.org/2000/svg" width="411" height="1400" fill-rule="evenodd"><g fill="#e2e2e2"><path d="M70 22h88v15H70zm0 21h242v15H70z"/><circle cx="43" cy="39" r="16"/><path d="M70 91h88v15H70zm0 21h242v15H70z"/><circle cx="43" cy="108" r="16"/><path d="M70 157h88v15H70zm0 21h242v15H70z"/><circle cx="43" cy="174" r="16"/><path d="M70 225h88v15H70zm0 21h242v15H70z"/><circle cx="43" cy="242" r="16"/><path d="M70 295h88v15H70zm0 21h242v15H70z"/><circle cx="43" cy="312" r="16"/></g><g fill="#fff"><rect x="27" y="483" width="312" height="136" rx="8"/><rect x="27" y="643" width="312" height="136" rx="8"/></g><g fill="#e2e2e2"><circle cx="55" cy="850" r="28"/><path d="M96 827h88v15H96zm0 23h50v15H96zm-69 61h50v15H27zm8 23h34v15H35zm103 0h34v15h-34zm97 0h34v15h-34zm-105-23h50v15h-50zm90 0h63v15h-63zM27 995h173v15H27zm0 28h85v15H27zm198-4h64v15h-64zm-198 41h132v15H27zm0 65h97v15H27zm0 20h201v15H27zm298-20h19v15h-19zm-34 19h53v15h-53zm-264 51h97v15H27zm0 20h201v15H27zm298-20h19v15h-19zm-34 19h53v15h-53zm-264 48h97v15H27zm0 20h201v15H27zm298-20h19v15h-19zm-34 19h53v15h-53zm-264 46h97v15H27zm0 20h201v15H27zm298-20h19v15h-19zm-34 19h53v15h-53z"/></g><text fill="#888" font-family="ArialMT, Arial" font-size="9"><tspan x="27.998" y="410">………………………..…..……………</tspan><tspan y="410" x="221">……………………………………………………</tspan></text><g fill="#e2e2e2"><rect x="31" y="390" width="50" height="45" rx="3"/><rect x="101" y="390" width="50" height="45" rx="3"/><rect x="172" y="390" width="50" height="45" rx="3"/><rect x="242" y="390" width="50" height="45" rx="3"/><rect x="312" y="390" width="50" height="45" rx="3"/></g></svg>