<svg xmlns="http://www.w3.org/2000/svg" width="520" height="180"><style><![CDATA[.B{fill-rule:nonzero}.C{fill:#757575}.D{fill:#fcc600}.E{fill:#fcac16}]]></style><defs><linearGradient x1="-0.494455852%" y1="50.0647273%" x2="100.203285%" y2="50.0647273%" id="A"><stop stop-color="#fbb400" offset="0%"/><stop stop-color="#fcd100" offset="100%"/></linearGradient><linearGradient x1="-0.259958932%" y1="50.0647273%" x2="100.437988%" y2="50.0647273%" id="B"><stop stop-color="#fbb400" offset="0%"/><stop stop-color="#fcd100" offset="100%"/></linearGradient></defs><g fill="none" fill-rule="evenodd"><path d="M32.3 42.154c0 1.02.826 1.846 1.846 1.846S36 43.174 36 42.154v-9.27h-3.7v9.27zM18.076 27.348h9.926v2.46h-9.926zM25.5 38.422h2.502v1.23H25.5zM17.46 44H31.7c-.4-.516-.63-1.15-.63-1.846V23H15v18.498C15 42.852 16.107 44 17.46 44zm11.77-3.117h-4.96v-3.7h4.963v3.7zm0-4.922h-4.96v-1.23h4.963v1.23zm0-2.46h-4.96v-1.23h4.963v1.23zm-12.387-7.383H29.23v4.922H16.846v-4.922zm0 6.152h6.193v1.23h-6.193v-1.23zm0 2.46h6.193v1.23h-6.193v-1.23zm0 2.46h6.193v1.23h-6.193V37.2zm0 2.46h6.193v1.23h-6.193v-1.23zM64 27h-2v14c0 1.1.9 2 2 2h14v-2H64V27zm16-4H68c-1.1 0-2 .9-2 2v12c0 1.1.9 2 2 2h12c1.1 0 2-.9 2-2V25c0-1.1-.9-2-2-2h0zm-8 12.5v-9l6 4.5-6 4.5zm56.525-9.215h-1.598a2.55 2.55 0 0 0 .39-1.106c.127-1.268-.54-2.405-1.675-2.9a2.8 2.8 0 0 0-3.06.493l-2.018 1.833a2.14 2.14 0 0 0-3.172.002l-2.02-1.835c-.846-.767-2.017-.956-3.06-.493-1.135.504-1.8 1.64-1.674 2.9a2.55 2.55 0 0 0 .39 1.106h-1.594c-.8 0-1.432.642-1.432 1.435v2.152c0 .396.32.717.716.717h20.525c.395 0 .716-.32.716-.717V27.72c0-.792-.64-1.435-1.432-1.435zm-11.695-.24v.24h-3.368c-.9 0-1.6-.83-1.368-1.76.098-.4.392-.757.773-.934.523-.242 1.103-.164 1.542.234l2.422 2.2v.02zm9.065-1.058c-.053.746-.726 1.297-1.472 1.297h-3.297v-.24l-.001-.025 2.384-2.165c.367-.333.88-.5 1.355-.347.68.203 1.08.784 1.03 1.48zm-16.463 7.037v10.522c0 .792.64 1.435 1.432 1.435h6.683V32.024h-8.115zm10.978 0V43.98h6.683c.8 0 1.432-.642 1.432-1.435v-10.52H120.4z" class="B C"/><path d="M25 133a7 7 0 1 0 0-14 7 7 0 1 0 0 14zm0-12.988A5.99 5.99 0 0 1 30.988 126 5.99 5.99 0 0 1 25 131.988 5.99 5.99 0 0 1 19.012 126 6 6 0 0 1 25 120.012zm-2.108 4.838a.8.8 0 1 0-.565-.236.8.8 0 0 0 .565.236h0zm4.014 0a.8.8 0 1 0-.565-.236c.15.152.352.237.565.236zm-4.226 3.933c.017-.05.346-1.14 2.193-1.14a2.52 2.52 0 0 1 2.463 1.2.51.51 0 0 0 .464.312.4.4 0 0 0 .194-.042.5.5 0 0 0 .27-.658 3.47 3.47 0 0 0-3.4-1.822c-2.665 0-3.154 1.822-3.17 1.9l.5.126.498.123z" fill="#ce4649" class="B"/><g class="B"><path d="M70.47 120.358v8.67h-5.24l-2.2-5.96 2.658 1.876c1.054.757 2.52.347 3.055-.867l1.726-3.72zm0 10.563h-5.24v-1.104h5.24v1.104zm0-13.874v2.255l-.886.426.092-.962-.596-.694.87-.205.52-.82z" stroke="url(#A)" class="D"/><path d="M70.47 129.03v-8.67l1.726 3.72a2.03 2.03 0 0 0 3.055.867l2.658-1.876-2.2 5.96h-5.24zm0 .788h5.24v1.104h-5.24v-1.104zm0-10.516v-2.255l.52.82.87.205-.596.694.092.962-.886-.426z" stroke="url(#B)" class="E"/><path d="M114.478 124.44v6.41h-3.873l-1.626-4.405 1.965 1.387c.78.56 1.863.256 2.258-.64l1.276-2.75zm0 7.808h-3.873v-.816h3.873v.816zm0-10.255v1.666l-.655.315.068-.71-.44-.513.644-.15.384-.606z" stroke="url(#A)" class="D"/><path d="M114.478 130.848v-6.41l1.276 2.75a1.5 1.5 0 0 0 2.258.641l1.965-1.387-1.626 4.405h-3.873zm0 .583h3.873v.816h-3.873v-.816zm0-7.773v-1.666l.384.606.644.15-.44.513.068.71-.655-.315z" stroke="url(#B)" class="E"/><path d="M160.72 117.697v14.7h-9.624l-4.04-10.1 4.882 3.183c1.936 1.284 4.63.588 5.61-1.47l3.17-6.312zm0 17.92h-9.624v-1.872h9.624v1.872zm0-23.536v3.825l-1.627.722.168-1.63-1.094-1.177 1.6-.348.954-1.39z" stroke="url(#A)" class="D"/><path d="M160.72 132.407v-14.7l3.17 6.312c.954 2.06 3.676 2.755 5.61 1.47l4.882-3.183-4.04 10.1h-9.624zm0 1.337h9.624v1.872h-9.624v-1.872zm0-17.84v-3.825l.954 1.39 1.6.348-1.094 1.177.168 1.63-1.627-.722z" stroke="url(#B)" class="E"/><path fill="#ff6661" d="M257 122.4l1.324-1.4 5.676 6-5.676 6-1.324-1.4 4.35-4.6z"/><path fill="#000" d="M300 122.21l-1.21-1.21-4.79 4.79-4.79-4.79-1.21 1.21 4.79 4.79-4.79 4.79 1.21 1.21 4.79-4.79 4.79 4.79 1.21-1.21-4.79-4.79z"/><path d="M333 123c-.25.013-.483.12-.653.3l-4.375 4.472-2.386-1.912c-.266-.22-.63-.28-.955-.16a.95.95 0 0 0-.61.741.94.94 0 0 0 .355.887l3.07 2.458a.97.97 0 0 0 1.298-.077l4.986-5.097c.28-.276.36-.693.2-1.05a.96.96 0 0 0-.924-.56L333 123z" fill="#93bd46"/><path d="M159.138 26.04l8.765-2.393-.464-.938c-.304-.6-1.044-.862-1.654-.558l-7.847 3.9h1.2zm11.487-2.325c-.1 0-.217.015-.326.044l-8.348 2.28h10.25l-.385-1.412c-.148-.55-.647-.9-1.2-.9zm2.86 3.188h-18.25a1.23 1.23 0 0 0-.965.464c-.104.13-.183.28-.227.447a1.28 1.28 0 0 0-.044.323v13.756c0 .682.553 1.235 1.235 1.235h18.25c.682 0 1.235-.553 1.235-1.235V38.45h-7.326a2.1 2.1 0 0 1-2.099-2.099v-2.746a2.09 2.09 0 0 1 .595-1.462 2.08 2.08 0 0 1 1.252-.62c.08-.01.165-.015.25-.015h7.328v-3.37a1.23 1.23 0 0 0-1.232-1.235zm2.1 5.785c-.123-.114-.27-.2-.432-.257a1.26 1.26 0 0 0-.4-.067h-7.36c-.682 0-1.235.553-1.235 1.235v2.748c0 .68.553 1.235 1.235 1.235h7.36a1.26 1.26 0 0 0 .4-.067c.163-.054.3-.143.432-.257a1.23 1.23 0 0 0 .402-.911V33.6a1.23 1.23 0 0 0-.402-.911zm-5.615 2.53a.62.62 0 0 1-.617.617h-.4a.62.62 0 0 1-.617-.617v-.4a.6.6 0 0 1 .237-.484c.106-.08.237-.133.38-.133h.4a.62.62 0 0 1 .617.617v.4z" class="C"/></g><g fill="#000" class="B"><g transform="matrix(-1 0 0 1 396 114)"><path d="M10.625 21.25a10.62 10.62 0 1 1 0-21.25 10.62 10.62 0 1 1 0 21.25zm0-20c-5.187 0-9.375 4.188-9.375 9.375S5.438 20 10.625 20 20 15.813 20 10.625 15.813 1.25 10.625 1.25zm-.187 15.438l-.875-.875 5.188-5.187L9.564 5.44l.875-.875 6.063 6.063z"/><path d="M5 10h10.625v1.25H5z"/></g><path d="M430.625 135.25a10.625 10.625 0 1 1 0-21.25 10.625 10.625 0 1 1 0 21.25zm0-20c-5.187 0-9.375 4.188-9.375 9.375s4.188 9.375 9.375 9.375 9.375-4.187 9.375-9.375-4.187-9.375-9.375-9.375zm-.187 15.438l-.875-.875 5.188-5.187-5.187-5.187.875-.875 6.063 6.063z"/><path d="M425 124h10.625v1.25H425z"/></g><path fill="#ff6661" d="M231.1 123.5l1.4 1.324-6 5.676-6-5.676 1.4-1.324 4.6 4.35z" class="B"/><g class="C B"><path d="M220 25c0-1.1-.9-2-2-2h-16c-1.1 0-2 .9-2 2v12c0 1.1.9 2 2 2h14l4 4V25zm-4 10h-12v-2h12v2zm0-3h-12v-2h12v2zm0-3h-12v-2h12v2zm38 2a3 3 0 1 0 3 3 3 3 0 0 0-3-3h0zm8-3h-2.4a.89.89 0 0 1-.789-.57l-.62-1.86a.89.89 0 0 0-.79-.569h-6.8a.89.89 0 0 0-.789.568l-.622 1.862a.89.89 0 0 1-.789.57H246c-1.1 0-2 .9-2 2v9c0 1.1.9 2 2 2h16c1.1 0 2-.9 2-2v-9c0-1.1-.9-2-2-2zm-8 11a5 5 0 1 1 0-10 5 5 0 1 1 0 10h0zm7.5-7.8a.7.7 0 0 1 0-1.4.7.7 0 0 1 0 1.4zm42.03 6.425c0 .896-.1 1.922-.266 3.078l-.86 4.9c-.23.938-1.02 1.406-2.375 1.406s-2.146-.47-2.375-1.406c-.25-1.02-.536-2.65-.86-4.9-.177-1.146-.266-2.172-.266-3.078 0-1.75 1.167-2.625 3.5-2.625s3.5.875 3.5 2.625zM312 31c0 2.5-.698 4.76-2.094 6.78a11.84 11.84 0 0 1-5.469 4.375.22.22 0 0 1-.234-.047c-.073-.062-.104-.14-.094-.234l.156-1.03.094-.734c.01-.094.057-.156.14-.187 1.656-.844 2.987-2.062 3.992-3.656A9.68 9.68 0 0 0 310 31c0-1.875-.474-3.596-1.422-5.164s-2.234-2.8-3.86-3.664-3.38-1.26-5.266-1.156a9.79 9.79 0 0 0-3.703.953c-1.177.563-2.185 1.294-3.023 2.195s-1.505 1.953-2 3.156a9.58 9.58 0 0 0-.727 3.758 9.62 9.62 0 0 0 1.547 5.258c1.02 1.588 2.36 2.794 4.016 3.617.073.03.12.094.14.188l.094.703.078.508.094.555c.01.094-.023.172-.102.234a.21.21 0 0 1-.242.031 11.96 11.96 0 0 1-4.078-2.648 11.85 11.85 0 0 1-2.71-4.125 11.84 11.84 0 0 1-.82-4.992c.073-1.5.417-2.914 1.03-4.273s1.42-2.542 2.414-3.547 2.167-1.826 3.516-2.46a11.65 11.65 0 0 1 4.258-1.094 11.88 11.88 0 0 1 4.93.727c1.578.59 2.938 1.424 4.078 2.508s2.052 2.388 2.734 3.914A11.68 11.68 0 0 1 312 31zm-8.47-.5a3.37 3.37 0 0 1-1.023 2.477A3.37 3.37 0 0 1 300.031 34a3.37 3.37 0 0 1-2.477-1.023 3.37 3.37 0 0 1-1.023-2.477 3.37 3.37 0 0 1 1.023-2.477A3.37 3.37 0 0 1 300.031 27a3.37 3.37 0 0 1 2.477 1.023 3.37 3.37 0 0 1 1.023 2.477zm4.5.5c0 1.27-.28 2.46-.836 3.57s-1.32 2.034-2.3 2.773c-.083.063-.167.073-.25.03s-.135-.115-.156-.22c-.062-.542-.214-1.02-.453-1.437-.073-.104-.057-.208.047-.312a6.14 6.14 0 0 0 1.422-1.984 5.81 5.81 0 0 0 .516-2.422 5.87 5.87 0 0 0-.914-3.187c-.6-.97-1.43-1.706-2.46-2.2s-2.135-.695-3.312-.57c-1.385.156-2.578.745-3.578 1.766s-1.568 2.224-1.703 3.6a5.66 5.66 0 0 0 .367 2.75 6.09 6.09 0 0 0 1.539 2.25c.104.104.12.208.047.313-.25.427-.4.9-.453 1.453-.02.094-.073.16-.156.203s-.167.03-.25-.03a8.1 8.1 0 0 1-2.32-2.859c-.557-1.135-.826-2.354-.805-3.656a7.77 7.77 0 0 1 1.078-3.812 8.07 8.07 0 0 1 2.766-2.836 7.72 7.72 0 0 1 3.766-1.164c1.5-.073 2.896.24 4.188.938s2.315 1.674 3.07 2.93 1.13 2.613 1.13 4.113zM352 25l2 3h-3l-2-3h-2l2 3h-3l-2-3h-2l2 3h-3l-2-3h-1c-1.1 0-2 .9-2 2v12c0 1.1.9 2 2 2h16c1.1 0 2-.9 2-2V25h-4zm-6.75 11.25L344 39l-1.25-2.75L340 35l2.75-1.25L344 31l1.25 2.75L348 35l-2.75 1.25zm5.7-3.3L350 35l-.94-2.06L347 32l2.06-.94L350 29l.94 2.06L353 32l-2.06.94z"/><path d="M392.2 31.787l.922.527 1.845-1.054-2.767-1.647zm5.598-3.36l.66-1.186c.527-.923-.988-1.977-1.713-2.37s-2.37-1.252-2.9-.264l-.923 1.58a14.71 14.71 0 0 0-3.03-.33c-5.468 0-9.882 2.965-9.882 6.588s4.414 6.588 9.882 6.588h.066c.066.8-.856 2.108-2.174 2.767 5.205 0 7.577-3.887 7.577-3.887 2.635-1.186 4.348-3.162 4.348-5.468.132-1.515-.66-2.898-1.9-4.02zm-13.243 5.864a.9.9 0 0 1-.922-.923.923.923 0 1 1 1.845 0c0 .527-.46.923-.922.923zm2.438 0a.9.9 0 0 1-.922-.923.923.923 0 1 1 1.845 0 .9.9 0 0 1-.922.923zm2.438 0a.9.9 0 0 1-.923-.923.923.923 0 1 1 1.845 0 .9.9 0 0 1-.922.923zm5.864-2.833l-1.9 1.054-1.58.856v-3.953l2.636-4.546c.13-.264 1.054 0 2.042.527s1.647 1.186 1.45 1.45l-2.635 4.612z"/></g><g transform="matrix(-1 0 0 -1 436 40)"><path d="M11 0v5h5v6h-5v5H5v-5H0V5h5V0h6z" fill="#ec2227"/><path d="M8.5 3v4.5H13v1H8.5V13h-1V8.5H3v-1h4.5V3h1z" fill="#fff"/></g></g></svg>